<?xml version="1.0" encoding="utf-8"?>
<!-- Generator: Adobe Illustrator 24.1.1, SVG Export Plug-In . SVG Version: 6.00 Build 0)  -->
<svg version="1.1" id="Capa_1" xmlns="http://www.w3.org/2000/svg" xmlns:xlink="http://www.w3.org/1999/xlink" x="0px" y="0px"
	 viewBox="0 0 417.63 158.37" style="enable-background:new 0 0 417.63 158.37;" xml:space="preserve">
<style type="text/css">
	.st0{fill:#FFFFFF;}
</style>
<g>
	<path class="st0" d="M167.55,113.73c0.67-7.79,2.92-14.25,4.04-20.94c0.64-3.82,3.13-4.08,6.25-3.93c3.48,0.17,3.36,3.02,3.23,4.88
		c-0.76,11.39,0.67,22.74,0.4,34.11c-0.07,2.83-0.15,5.62-0.72,8.45c-0.42,2.11-0.45,3.97-3.13,3.82c-2.68-0.15-3.35-2.03-3.34-4.38
		c0.03-7.65,0.04-15.29,0.06-22.94c0-1.32,0-2.64-0.69-4.03c-1.59,8.83-3.26,17.65-4.69,26.51c-0.3,1.87-0.12,3.84-2.54,3.87
		c-2.24,0.04-2.85-1.78-3.06-3.7c-0.55-5.19-1.09-10.38-1.68-15.56c-0.45-3.99-1.48-7.84-2.73-11.69c-1.25,0.38-1.49,1.36-1.39,2.09
		c1.21,8.5,0.1,17.06,0.63,25.57c0.13,2.06,0.02,4.51-2.29,4.68c-2.46,0.18-3.21-2.13-3.21-4.44c0-14.69,0.01-29.39-0.04-44.08
		c-0.01-1.97,0.54-3.31,2.74-3.12c2.45,0.21,5.54-0.87,6.32,3.03c1.14,5.67,2.43,11.31,3.53,16.99
		C165.53,110.4,165.84,111.75,167.55,113.73z"/>
	<path class="st0" d="M253.34,29.92c-3.5-2.91-6.57-5.47-9.64-8.03c-2.12-1.78-3.33-3.05,0.63-4.38c3.44-1.16,6.5-1.78,9.68,0.28
		c0.12,0.07,0.32,0.01,0.44,0.09c8.65,5.16,17.59,5.74,27.04,2.21c3.82-1.42,7.68-0.65,10.85,2.21c1.98,1.78,2.49,3.4-0.58,4.6
		c-1.52,0.6-2.9,1.59-4.45,2.01c-10.06,2.73-17.86,8.52-23.05,17.49c-2.1,3.62-5.69,4-8.86,5.34c-2.06,0.87-2.26-0.84-1.99-2.24
		c0.69-3.49,1.54-6.94,2.49-11.12c-6.86,2.36-13.77,3.73-19.89,7.25c-4.05,2.33-6.97,1.17-7.6-3.66c-0.24-1.86-0.57-3.44-1.93-4.83
		c-0.73-0.75-2.39-1.43-1.43-2.83c0.9-1.32,2.49-1.62,4.05-1.26c0.7,0.16,1.56,0.46,1.97,0.98c3.37,4.32,7.06,2.84,10.97,0.89
		C245.56,33.18,249.24,31.72,253.34,29.92z"/>
	<path class="st0" d="M290.57,119.19c0-10.62,0.05-21.25-0.04-31.87c-0.02-2.15,0.75-3.06,2.83-3c0.3,0.01,0.6-0.04,0.9-0.01
		c5.14,0.48,12.14-2.44,14.68,3.48c2.76,6.44,2.37,14.06-0.36,20.85c-0.76,1.9-1,2.97-0.13,4.75c1.97,4.05,1.57,8.44,1.21,12.76
		c-0.32,3.88-0.8,7.73,0.23,11.59c0.38,1.43,0.83,3.2-1.08,3.83c-2.07,0.68-4.23,0.45-5.57-1.55c-0.9-1.35-1.3-2.93-1.22-4.66
		c0.23-5.23,0.21-10.48,0.49-15.71c0.12-2.21,0-4.03-2.67-4.15c-2.9-0.13-2.26,2.14-2.27,3.82c-0.04,6.29-0.16,12.58,0.03,18.87
		c0.11,3.56-1.88,3.79-4.56,3.76c-2.78-0.04-3.2-1.19-3.05-3.88c0.35-6.27,0.11-12.57,0.11-18.86
		C290.25,119.19,290.41,119.19,290.57,119.19z M302.93,100.06c0-1.5-0.01-3,0-4.49c0.01-1.69-0.48-2.88-2.44-3.07
		c-2.14-0.2-2.64,1.35-2.73,2.79c-0.21,3.28-0.12,6.58-0.12,9.88c0,1.61,0.88,2.49,2.48,2.57c1.88,0.09,2.74-0.95,2.78-2.73
		C302.95,103.36,302.92,101.71,302.93,100.06z"/>
	<path class="st0" d="M360.52,127.72c0,2.7-0.29,5.44,0.07,8.09c0.55,4.11-1.4,4.74-4.85,4.47c-2.05-0.16-2.43-0.97-2.44-2.77
		c-0.03-6.89-0.53-13.79-0.2-20.65c0.45-9.31-1.1-18.54-0.73-27.84c0.11-2.94,0.33-4.73,4.07-4.74c3.56,0,4.32,1.36,4.14,4.53
		c-0.26,4.63-0.22,9.28-0.2,13.93c0.01,1.75-0.16,3.7,2.79,3.34c2.26-0.28,4.92,0.2,4.51-3.29c-0.54-4.61,0.47-9.25-0.46-13.84
		c-0.45-2.24,0.26-3.7,2.96-3.7c2.3,0,4.2-0.02,3.88,3.2c-0.76,7.7,0.58,15.38,0.18,23.13c-0.43,8.33,0.45,16.73,0.88,25.1
		c0.1,1.96,0.37,3.93-2.36,3.58c-1.93-0.25-4.82,1.54-5.28-2.72c-0.66-6.09-0.25-12.14,0.02-18.18c0.14-3.33-1.9-4.03-3.97-4.17
		c-2.27-0.15-3.71,1.04-3.15,4.03c0.51,2.75,0.11,5.67,0.11,8.52C360.48,127.72,360.5,127.72,360.52,127.72z"/>
	<path class="st0" d="M195.91,83.51c6.89-0.02,9.69,3.58,10.2,10.49c0.73,10.01,0.33,20,0.57,30c0.2,8.1-5.3,11.41-11.09,11.59
		c-7.32,0.22-11.65-5.17-11.32-12.6c0.26-5.96,0.21-11.96-0.17-17.91c-0.25-4.01,0.82-7.84,0.57-11.9
		C184.33,87.78,189.96,83.52,195.91,83.51z M193.02,107.9c0.56,5.59-0.51,10.86,0.76,16.03c0.29,1.19,0.15,2.88,2.22,2.72
		c1.7-0.13,2.34-1.51,2.48-2.73c1.12-9.94,0.98-19.9,0.16-29.86c-0.17-2.07-1.78-3.02-3.33-2.98c-1.54,0.04-2.33,1.56-2.31,3.29
		C193.05,99.02,193.02,103.65,193.02,107.9z"/>
	<path class="st0" d="M266.96,112.69c0.01-6.25-0.07-12.49,0.03-18.74c0.09-6.07,5.3-10.54,11.98-10.45
		c6.45,0.09,9.46,3.4,9.62,10.2c0.22,9.57,0.81,19.14,0.86,28.71c0.03,5.13-1.01,9.73-6.88,12.14c-7.48,3.07-15.31-1.2-15.59-9.27
		C266.84,121.09,266.95,116.89,266.96,112.69z M281.34,109.19c0.06,0,0.11,0,0.17,0c0-4.03,0.08-8.07-0.03-12.1
		c-0.07-2.49,0.16-5.87-3.22-5.94c-3.51-0.06-3.21,3.31-3.15,5.79c0.21,8.39,0.51,16.78,0.86,25.16c0.08,1.81-0.27,4.49,2.42,4.41
		c2.54-0.08,2.97-2.48,2.95-4.73C281.32,117.58,281.34,113.38,281.34,109.19z"/>
	<path class="st0" d="M89.09,138.27c-2.41-0.08-4.69-0.88-4.82-4.5c-0.07-1.75-0.59-3.5-1.06-5.21c-0.61-2.19-2.1-3.17-4.39-2.73
		c-2.06,0.4-3.67,1.16-3.51,3.74c0.12,1.94-0.12,3.9,0.03,5.83c0.19,2.4-0.82,2.99-3.11,3.04c-6.58,0.15-6.36,0.29-5.22-6.27
		c2.61-15.03,4.93-30.11,7.47-45.15c0.34-1.99-0.08-4.98,3.33-4.76c2.95,0.19,6.57-0.92,7.21,4.08c1.37,10.72,3.1,21.4,4.71,32.1
		c0.86,5.7,1.77,11.39,2.67,17.08C92.74,137.72,91.77,138.58,89.09,138.27z M80.05,105.3c-2.97,4.09-1.67,8.05-2.84,11.53
		c-0.63,1.9,1.19,2.03,2.52,2.03c1.5,0,2.6-0.57,2.28-2.37C81.42,113.08,80.82,109.67,80.05,105.3z"/>
	<path class="st0" d="M346.42,138.27c-2.39-0.08-4.69-0.85-4.85-4.46c-0.08-1.75-0.59-3.5-1.06-5.21c-0.6-2.18-2.05-3.21-4.37-2.77
		c-2.05,0.39-3.71,1.12-3.54,3.71c0.11,1.79-0.15,3.61,0.04,5.38c0.29,2.77-0.77,3.57-3.53,3.54c-6.15-0.06-5.92,0.13-4.81-6.25
		c2.61-15.03,4.94-30.11,7.48-45.15c0.34-1.99-0.09-4.99,3.3-4.79c2.94,0.17,6.59-1.01,7.23,4.04c1.37,10.72,3.1,21.4,4.72,32.09
		c0.86,5.7,1.76,11.39,2.67,17.08C350.03,137.65,349.14,138.59,346.42,138.27z M337.31,105.3c-2.84,4.32-1.95,8.43-2.76,12.14
		c-0.35,1.62,1.58,1.37,2.66,1.41c1.33,0.05,2.38-0.62,2.15-2.1C338.82,113.22,338.11,109.71,337.31,105.3z"/>
	<path class="st0" d="M135.29,82.4c2.93-0.53,4.76,0.33,5.28,4.37c1.65,12.8,3.83,25.53,5.75,38.3c0.46,3.07,0.62,6.19,1.13,9.26
		c0.28,1.67,1.82,3.87-1.3,3.91c-2.26,0.02-5.37,0.69-6.05-3.03c-0.39-2.18-0.96-4.33-1.42-6.49c-0.49-2.3-1.87-3.25-4.19-2.91
		c-2.13,0.31-3.61,1.08-3.54,3.64c0.05,1.78-0.47,3.59-0.36,5.37c0.19,3.01-1.13,3.72-3.94,3.64c-5.35-0.15-5.42-0.16-4.48-5.63
		c2.72-15.76,5.46-31.52,7.98-47.32C130.65,82.34,132.27,81.93,135.29,82.4z M135.64,105.13c-2.54,4.12-2.32,7.56-2.86,10.86
		c-0.27,1.69-0.54,2.77,1.69,2.88c1.95,0.09,3.28-0.28,2.93-2.61C136.9,112.94,136.36,109.64,135.64,105.13z"/>
	<path class="st0" d="M229.02,95.36c0.01,2.37,1.09,5.09-3.2,5.35c-4.21,0.25-4.77-1.88-4.63-5.13c0.07-1.58,0.61-3.66-1.84-3.82
		c-2.21-0.14-1.74,2.03-2.16,3.32c-1.14,3.47-0.17,6.43,2.34,8.97c0.53,0.53,1,1.12,1.56,1.62c7.79,6.93,9.11,15.88,8.08,25.61
		c-0.48,4.53-5.32,8.11-9.81,7.65c-10.81-1.1-8.92-6.15-9.32-15.63c-0.16-3.81,1.76-4.05,4.63-3.82c3.21,0.26,2.51,2.64,2.82,4.63
		c0.33,2.12-1.39,5.88,2.08,5.77c2.69-0.08,2.3-3.76,2.4-6.19c0.15-3.68-1.28-6.71-3.8-9.23c-2.13-2.13-4.24-4.35-5.43-7.05
		c-2.81-6.36-3.98-13.06-2.34-19.97c0.6-2.53,2.77-3.42,5.09-3.73c4.12-0.55,8.11-0.5,10.96,3.28
		C228.32,89.45,229.27,92.21,229.02,95.36z"/>
	<path class="st0" d="M245.34,117.15c0.09-9.11-0.19-18.2-0.72-27.3c-0.43-7.31,0.64-7.95,7.87-6.83
		c11.76,1.82,11.76,1.82,11.76,13.6c0,4.49,0.03,8.98-0.01,13.47c-0.05,5.4-2.77,8.41-8.1,8.45c-2.73,0.02-3.75,0.84-3.64,3.6
		c0.17,4.18-0.06,8.38,0.08,12.57c0.09,2.68-0.9,3.78-3.65,3.73c-2.68-0.06-3.71-1.09-3.64-3.8
		C245.44,128.81,245.35,122.98,245.34,117.15z M252.51,101.13c0.02,0,0.03,0,0.05,0c0,2.83-0.01,5.65,0,8.48
		c0,1.23,0.09,2.42,1.71,2.63c1.19,0.16,1.94-0.38,2.61-1.3c2.15-2.98,2.1-16.28-0.04-19.02c-0.83-1.07-1.9-1.49-3.12-1.31
		c-1.45,0.21-1.18,1.53-1.2,2.5C252.48,95.78,252.51,98.46,252.51,101.13z"/>
	<path class="st0" d="M54.71,133.62c-5.98,1.94-5.25-2.33-5.75-5.7c-1.96-13.18-3.94-26.36-6.12-39.51
		c-0.41-2.47,0.15-3.21,2.52-3.22c1.97-0.01,3.74-0.62,3.96,2.54c0.52,7.53,3.34,14.72,3.51,22.33c0.02,0.85-0.01,2.09,1.21,1.94
		c0.86-0.11,1.31-1.16,1.37-2.11c0.22-3.26,0.56-6.51,0.83-9.74c0.38-4.49,1.76-8.76,2.04-13.25c0.25-3.95,3.54-2.26,5.59-2.42
		c2.18-0.18,1.62,1.67,1.45,2.91c-1.13,8.33-2.51,16.63-3.43,24.99c-0.71,6.47-2.39,12.79-2.12,19.44
		C59.94,135.51,56.34,133.03,54.71,133.62z"/>
	<path class="st0" d="M107.57,97.08c3.06-2.72,2.83-6.2,3.73-9.24c1.85-6.28,1.79-6.3,8.78-4.97c-1.7,5.77-3.16,11.58-5.12,17.23
		c-3.79,10.87-2.8,22.1-2.63,33.23c0.07,4.48-1.67,5.32-5.55,5.13c-3.09-0.16-3.34-2.32-3.43-4.26c-0.17-3.57-0.06-7.19,0.33-10.75
		c0.76-6.77,0.46-13.32-2.3-19.68c-2.77-6.38-4.05-13.35-7.65-19.41c-0.45-0.76-0.42-1.31,0.32-1.9c1.79-1.43,7.98,0.23,8.65,2.49
		C103.91,89.06,105.36,93.04,107.57,97.08z"/>
	<path class="st0" d="M386.6,111.57c-0.81,7.09,0.15,14.7,0.1,22.33c-0.03,3.96-2.46,4.18-5.19,4.51c-3.38,0.4-2.95-1.97-2.98-4.08
		c-0.22-13,1.52-25.99,0.16-39.01c-0.27-2.63,1.11-5.23,0.41-7.99c-0.74-2.92,1.34-3.22,3.44-3.15c2.03,0.06,4.2-0.27,4.12,3.1
		C386.47,95.2,386.6,103.12,386.6,111.57z"/>
	<path class="st0" d="M59.39,48.97c-3.98-5.98-10.27-8.48-16.35-12.3c3.53-1.43,5.5,2.65,7.91,0.84c1.89-1.43,2.78-4.19,5.67-4.38
		c0.16,0.4,0.36,0.65,0.33,0.85c-0.45,2.55-4.65,3.36-3.64,6c0.76,1.97,3.44,3.18,5.16,4.83C59.34,45.67,60.66,46.52,59.39,48.97z"
		/>
	<path class="st0" d="M393.95,74.09c-3.44,3-6.22,5.44-9.03,7.86c-1.01,0.87-2.38,1.07-3.3,0.28c-1.07-0.91,0.22-1.92,0.63-2.72
		C385.52,73.16,385.9,73,393.95,74.09z"/>
	<path class="st0" d="M49.8,41.55c-1.55,3.29-2.61,5.32-3.49,7.43c-1.37,3.3-2.33,6.7-1.06,10.27c0.34,0.97,0.36,1.74-0.67,2.2
		c-0.85,0.38-0.98-0.52-1.21-0.91C40.91,56.22,44.09,45.3,49.8,41.55z"/>
	<path class="st0" d="M196.19,53.63c6.04-2.95,12.36-5.02,19.03-5.98C209.38,51.24,202.95,52.98,196.19,53.63z"/>
	<path class="st0" d="M156.72,58.35c-6.86,0.85-13.23-0.74-19.3-3.85C143.98,55.14,150.31,56.97,156.72,58.35z"/>
	<path class="st0" d="M102.11,35.21c-6.51-0.98-12.48-3.83-18.78-5.66C90.26,29.13,96.25,31.88,102.11,35.21z"/>
	<path class="st0" d="M46.94,65.58c5.31,2.34,10.36,3.49,15.79-2.19c-1.5,4.42-3.08,5.95-6.27,6.45
		C52.56,70.45,49.47,68.72,46.94,65.58z"/>
	<path class="st0" d="M176.82,57.97c0.28,0.09-1.47,1.57-1.54-0.48c-0.05-1.46,1.59-0.8,2.51-0.98c3.9-0.77,7.82-1.47,11.7-2.31
		c0.97-0.21,1.85-0.47,2.05,0.74c0.18,1.11-0.72,1.4-1.67,1.56c-1.6,0.26-3.18,0.79-4.78,0.86
		C182.7,57.46,180.51,58.83,176.82,57.97z"/>
	<path class="st0" d="M39.19,35.97c-5.34,0.81-10.65,1.55-15.51,4.67C24.4,36.06,32.11,33.73,39.19,35.97z"/>
	<path class="st0" d="M118.18,43.63c4.97,2.64,9.95,5.28,15.89,8.43C129.44,52.42,120.66,47.85,118.18,43.63z"/>
	<path class="st0" d="M77.91,28.73c-5.04,1.09-10.3,0.16-15.19,2.16c-0.22,0.09-0.87-0.27-0.96-0.53c-0.29-0.83,0.14-1.43,0.98-1.64
		C67.76,27.46,72.81,27.28,77.91,28.73z"/>
	<path class="st0" d="M64.81,56.82c0.06,1.5,0.19,2.35-0.8,2.51c-0.95,0.15-1.36-0.57-1.24-1.36c0.27-1.86-0.72-3.41-1.09-5.11
		c-0.13-0.6-1-1.33,0.2-1.73c0.81-0.26,1.44,0.07,1.68,0.93C64.05,53.88,64.52,55.71,64.81,56.82z"/>
	<path class="st0" d="M112.44,41.97c-2.5-1.39-5-2.79-7.5-4.18c0.19-0.35,0.39-0.7,0.58-1.05c3.17,0.21,5.35,2.28,7.66,4.11
		C112.93,41.23,112.69,41.6,112.44,41.97z"/>
	<path class="st0" d="M168.77,58.41c-2.84,1.21-5.68,0.8-8.53,0.26C163.09,56.87,165.93,57.23,168.77,58.41z"/>
</g>
</svg>
